<svg xmlns="http://www.w3.org/2000/svg" width="24.061" height="35.151" viewBox="0 0 24.061 35.151">
  <g id="그룹_37" data-name="그룹 37" transform="translate(-716.588 -403.377)">
    <path id="패스_29" data-name="패스 29" d="M737.979,435.378q-.81-1.08-1.711-2.415T734.5,430.1a14.678,14.678,0,0,0-1.65-2.325,8.98,8.98,0,0,0-1.665-1.5,6.025,6.025,0,0,0-1.635-.8,5.483,5.483,0,0,0-1.559-.24q1.019-.24,2.069-.42t2.056-.39a13.022,13.022,0,0,0,1.889-.54,4.865,4.865,0,0,0,1.545-.915,4.188,4.188,0,0,0,1.05-1.47,5.563,5.563,0,0,0,.391-2.235,6.327,6.327,0,0,0-.661-3.045,4.978,4.978,0,0,0-1.875-1.935,8.386,8.386,0,0,0-2.9-1.005,22.12,22.12,0,0,0-3.689-.285H716.588v.3a3.1,3.1,0,0,1,1.231.21,1.489,1.489,0,0,1,.719.63,2.972,2.972,0,0,1,.331,1.065,11.322,11.322,0,0,1,.089,1.515v18.63a10.779,10.779,0,0,1-.059,1.185,2.4,2.4,0,0,1-.271.9,1.468,1.468,0,0,1-.6.585,2.217,2.217,0,0,1-1.05.21v.3q1.348-.06,2.22-.09t1.62-.03q.839,0,1.71.03t2.25.09v-.3a2.369,2.369,0,0,1-.991-.18,1.337,1.337,0,0,1-.6-.525,2.434,2.434,0,0,1-.3-.81,5.465,5.465,0,0,1-.09-1.035v-5.04a10.862,10.862,0,0,1,.3-1.335,5.735,5.735,0,0,1,.585-1.365,3.744,3.744,0,0,1,.915-1.05,2.038,2.038,0,0,1,1.29-.42,3.041,3.041,0,0,1,1.426.39,4.693,4.693,0,0,1,1.425,1.26,21.326,21.326,0,0,1,1.424,2.115q.645,1.1,1.276,2.175,1.108,1.89,2.04,3.435t1.68,2.685c.24-.019.615-.03,1.125-.03h1.62q.854,0,1.62.015t1.125.015v-.3a6.323,6.323,0,0,1-1.17-1.035A21.294,21.294,0,0,1,737.979,435.378Zm-11.566-10.395a8.444,8.444,0,0,0-2.1,1.485,6.115,6.115,0,0,0-1.516,2.64v-15.78h3.96a10.24,10.24,0,0,1,2.431.285,5.506,5.506,0,0,1,2.069.975,4.773,4.773,0,0,1,1.425,1.83,6.276,6.276,0,0,1,.466,2.85,4.666,4.666,0,0,1-.691,2.52,4.58,4.58,0,0,1-1.6,1.425,11.193,11.193,0,0,1-2.146.87A14.36,14.36,0,0,0,726.413,424.983Z" fill="#101224"/>
    <path id="패스_30" data-name="패스 30" d="M727.515,406.076a9.31,9.31,0,0,1-1.407-2.7,9.247,9.247,0,0,1-3.091,4.416,9.257,9.257,0,0,1,3.091,4.417,9.268,9.268,0,0,1,3.092-4.417A9.262,9.262,0,0,1,727.515,406.076Z" fill="#101224"/>
  </g>
</svg>
