<svg xmlns="http://www.w3.org/2000/svg" width="130.436" height="48.914" viewBox="0 0 130.436 48.914">
  <g id="그룹_35" data-name="그룹 35" transform="translate(-647.38 -263.8)">
    <path id="패스_6" data-name="패스 6" d="M774.267,304.437a13.9,13.9,0,0,1-3.612,2.443,15.789,15.789,0,0,1-4.259,1.253,34.232,34.232,0,0,1-5.158.355h-4.508v-19.54h1.712a27.9,27.9,0,0,1,4.635.313,8.608,8.608,0,0,1,2.944,1,6.1,6.1,0,0,1,1.9,1.775,20.074,20.074,0,0,1,1.5,2.63h.251V282.809h-.251a11.124,11.124,0,0,1-1.211,2.735,5.051,5.051,0,0,1-1.942,1.754,10.025,10.025,0,0,1-3.111.939,31.558,31.558,0,0,1-4.718.292h-1.712V273.874h5.511a32.377,32.377,0,0,1,5.115.355,13.377,13.377,0,0,1,3.925,1.232,12.746,12.746,0,0,1,3.194,2.317,28.733,28.733,0,0,1,3.006,3.57l.334-.125-1.42-7.683v-.125H746.166c-.611.056-1.225.1-1.836.146s-1.266.063-1.962.063q-.877,0-1.837-.063c-.64-.042-1.324-.09-2.046-.146v.334a5.678,5.678,0,0,1,3.549,1.294,2.306,2.306,0,0,1,.334,2.547l-3.8,9.645a3.09,3.09,0,0,1-1.126,1.023,2.754,2.754,0,0,1-2.59-.021,3.427,3.427,0,0,1-1.084-.919,5.785,5.785,0,0,1-.793-1.4q-.334-.814-.607-1.691t-.541-1.733q-.271-.856-.522-1.566-.461-1.253-1.087-2.651a11.254,11.254,0,0,0-1.543-2.526,7.177,7.177,0,0,0-2.15-1.8,5.034,5.034,0,0,0-2.944-.5c-.863.083-1.651.139-2.359.167s-1.386.042-2.026.042c-.889,0-1.788-.028-2.692-.083s-1.943-.111-3.111-.167H683.329v.418a3.1,3.1,0,0,1,1.461.292,2.047,2.047,0,0,1,.835.814,3.313,3.313,0,0,1,.376,1.253,14.659,14.659,0,0,1,.083,1.649v25.929a15.472,15.472,0,0,1-.125,2.109,4.135,4.135,0,0,1-.459,1.482,2.075,2.075,0,0,1-1,.877,20.806,20.806,0,0,1-3.632.292,8.852,8.852,0,0,1-1.627-1.44,29.637,29.637,0,0,1-2.088-2.526q-1.129-1.5-2.381-3.361t-2.463-3.987a20.448,20.448,0,0,0-2.3-3.236,12.538,12.538,0,0,0-2.317-2.088,8.345,8.345,0,0,0-2.275-1.106,7.641,7.641,0,0,0-2.171-.334q1.42-.334,2.881-.585t2.86-.543a18.143,18.143,0,0,0,2.63-.752,6.789,6.789,0,0,0,2.15-1.273,5.847,5.847,0,0,0,1.461-2.046,7.766,7.766,0,0,0,.543-3.111,8.8,8.8,0,0,0-.919-4.238,6.928,6.928,0,0,0-2.61-2.693,11.67,11.67,0,0,0-4.029-1.4,30.8,30.8,0,0,0-5.136-.4h-15.7v.418a4.3,4.3,0,0,1,1.712.292,2.069,2.069,0,0,1,1,.877,4.135,4.135,0,0,1,.459,1.482,15.472,15.472,0,0,1,.125,2.109v25.929a14.984,14.984,0,0,1-.083,1.649,3.338,3.338,0,0,1-.376,1.253,2.046,2.046,0,0,1-.835.814,3.092,3.092,0,0,1-1.46.292v.418q1.877-.083,3.088-.125t2.255-.042c.779,0,1.571.014,2.38.042s1.85.07,3.131.125v-.418a3.3,3.3,0,0,1-1.378-.251,1.864,1.864,0,0,1-.835-.731,3.389,3.389,0,0,1-.418-1.127,7.607,7.607,0,0,1-.125-1.44v-7.015a14.86,14.86,0,0,1,.417-1.858,7.925,7.925,0,0,1,.814-1.9,5.19,5.19,0,0,1,1.273-1.461,2.837,2.837,0,0,1,1.8-.585,4.228,4.228,0,0,1,1.983.543,6.516,6.516,0,0,1,1.983,1.754,29.7,29.7,0,0,1,1.983,2.944q.9,1.524,1.774,3.027,1.545,2.63,2.841,4.781t2.337,3.737q.5-.042,1.566-.042h2.255q1.19,0,2.255.021c.688.014,1.191.02,1.527.021h30.268l1.42-8.309-.292-.083a22.384,22.384,0,0,1-3.257,3.883,13.893,13.893,0,0,1-3.612,2.443,15.788,15.788,0,0,1-4.259,1.253,34.224,34.224,0,0,1-5.156.355h-4.509v-19.54h1.712a27.905,27.905,0,0,1,4.635.313,8.608,8.608,0,0,1,2.944,1,6.1,6.1,0,0,1,1.9,1.775,20.1,20.1,0,0,1,1.5,2.63h.25V282.809h-.25a11.128,11.128,0,0,1-1.211,2.735,5.051,5.051,0,0,1-1.942,1.754,10.026,10.026,0,0,1-3.111.939,31.558,31.558,0,0,1-4.718.292h-1.712V273.874h5.511a32.376,32.376,0,0,1,5.115.355,13.375,13.375,0,0,1,3.925,1.232,12.747,12.747,0,0,1,3.194,2.317,28.733,28.733,0,0,1,3.006,3.57l.334-.125-1.357-7.347h.032a6.291,6.291,0,0,1,2.159-.127A4.209,4.209,0,0,1,715,274.918a11.549,11.549,0,0,1,1.773,3.09l13.321,30.939h.334q3.422-8.643,6.138-15.532,1.169-2.923,2.295-5.762t2.025-5.115q.9-2.276,1.461-3.737c.377-.974.591-1.517.649-1.628.221-.5.424-.932.605-1.294a4.157,4.157,0,0,1,.605-.919,3.7,3.7,0,0,1,.793-.668,5.727,5.727,0,0,1,1.042-.493,8.492,8.492,0,0,1,4.051.326,1.762,1.762,0,0,1,.835.814,3.313,3.313,0,0,1,.376,1.253,14.63,14.63,0,0,1,.083,1.649v25.929a15.473,15.473,0,0,1-.125,2.109,4.108,4.108,0,0,1-.461,1.482,2.066,2.066,0,0,1-1,.877,4.309,4.309,0,0,1-1.712.292v.418H776.4l1.42-8.309-.292-.083A22.387,22.387,0,0,1,774.267,304.437ZM661.054,290.1a11.785,11.785,0,0,0-2.923,2.067,8.508,8.508,0,0,0-2.108,3.674V273.874h5.511a14.24,14.24,0,0,1,3.382.4,7.649,7.649,0,0,1,2.881,1.357,6.635,6.635,0,0,1,1.983,2.547,8.751,8.751,0,0,1,.647,3.967,6.494,6.494,0,0,1-.96,3.507,6.389,6.389,0,0,1-2.232,1.983,15.609,15.609,0,0,1-2.987,1.211A19.993,19.993,0,0,0,661.054,290.1Zm71.752,11.628-9.979-23.215a7.365,7.365,0,0,1-.564-2.171,2.148,2.148,0,0,1,.564-1.628,2.34,2.34,0,0,1,1.211-.71,2.726,2.726,0,0,1,1.418.042,4.831,4.831,0,0,1,1.9,1.044,8.372,8.372,0,0,1,1.5,1.754,16.35,16.35,0,0,1,1.148,2.109q.5,1.106.877,2.15c.167.445.34.953.522,1.524s.369,1.155.564,1.754.409,1.176.647,1.733a7.136,7.136,0,0,0,.814,1.461,3.542,3.542,0,0,0,1.273,1.065,3.447,3.447,0,0,0,1.524.355,3.169,3.169,0,0,0,1.878-.626Z" transform="translate(0 3.767)" fill="#fff"/>
    <path id="패스_7" data-name="패스 7" d="M656.761,271.373a11.461,11.461,0,0,1,1.737,3.333,11.419,11.419,0,0,1,3.818-5.453A11.437,11.437,0,0,1,658.5,263.8a11.449,11.449,0,0,1-3.816,5.453A11.416,11.416,0,0,1,656.761,271.373Z" transform="translate(2.861)" fill="#fff"/>
  </g>
</svg>
