<svg xmlns="http://www.w3.org/2000/svg" width="58.667" height="22" viewBox="0 0 58.667 22">
  <g id="그룹_36" data-name="그룹 36" transform="translate(-647.38 -263.8)">
    <path id="패스_6" data-name="패스 6" d="M704.451,287.368a6.248,6.248,0,0,1-1.624,1.1,7.1,7.1,0,0,1-1.915.563,15.4,15.4,0,0,1-2.32.16h-2.027V280.4h.77a12.553,12.553,0,0,1,2.085.141,3.87,3.87,0,0,1,1.324.451,2.741,2.741,0,0,1,.854.8,9.031,9.031,0,0,1,.676,1.183h.113V277.64h-.113a5,5,0,0,1-.545,1.23,2.272,2.272,0,0,1-.873.789,4.508,4.508,0,0,1-1.4.423,14.19,14.19,0,0,1-2.122.132h-.77v-6.592h2.479a14.566,14.566,0,0,1,2.3.16,6.016,6.016,0,0,1,1.765.554,5.732,5.732,0,0,1,1.437,1.042,12.92,12.92,0,0,1,1.352,1.606l.15-.056-.639-3.455v-.056h-13.6c-.275.025-.551.047-.826.066s-.57.028-.883.028q-.394,0-.826-.028c-.288-.019-.6-.041-.92-.066v.15a2.554,2.554,0,0,1,1.6.582,1.037,1.037,0,0,1,.15,1.146l-1.71,4.338a1.39,1.39,0,0,1-.506.46,1.239,1.239,0,0,1-1.165-.009,1.542,1.542,0,0,1-.488-.413,2.6,2.6,0,0,1-.357-.629q-.15-.366-.273-.761t-.243-.779q-.122-.385-.235-.7-.208-.563-.489-1.193a5.066,5.066,0,0,0-.694-1.136,3.226,3.226,0,0,0-.967-.807,2.264,2.264,0,0,0-1.324-.225c-.388.038-.742.063-1.061.075s-.623.019-.911.019c-.4,0-.8-.013-1.211-.038s-.874-.05-1.4-.075H663.549v.188a1.394,1.394,0,0,1,.657.131.921.921,0,0,1,.376.366,1.491,1.491,0,0,1,.169.563,6.588,6.588,0,0,1,.038.742v11.662a6.961,6.961,0,0,1-.056.948,1.862,1.862,0,0,1-.207.667.934.934,0,0,1-.451.394,9.359,9.359,0,0,1-1.634.131,3.98,3.98,0,0,1-.732-.648,13.328,13.328,0,0,1-.939-1.136q-.508-.676-1.071-1.512t-1.108-1.793a9.2,9.2,0,0,0-1.033-1.455,5.642,5.642,0,0,0-1.042-.939,3.754,3.754,0,0,0-1.023-.5,3.438,3.438,0,0,0-.977-.15q.638-.15,1.3-.263t1.286-.244a8.168,8.168,0,0,0,1.183-.338,3.053,3.053,0,0,0,.967-.573,2.629,2.629,0,0,0,.657-.92,3.494,3.494,0,0,0,.244-1.4,3.959,3.959,0,0,0-.413-1.906,3.116,3.116,0,0,0-1.174-1.211,5.247,5.247,0,0,0-1.812-.629,13.852,13.852,0,0,0-2.31-.178H647.38v.188a1.935,1.935,0,0,1,.77.131.93.93,0,0,1,.451.394,1.86,1.86,0,0,1,.207.667,6.964,6.964,0,0,1,.056.948v11.662a6.738,6.738,0,0,1-.037.742,1.5,1.5,0,0,1-.169.563.92.92,0,0,1-.376.366,1.392,1.392,0,0,1-.657.131v.188q.844-.038,1.389-.056t1.014-.019q.526,0,1.07.019t1.409.056v-.188a1.482,1.482,0,0,1-.62-.113.839.839,0,0,1-.376-.329,1.523,1.523,0,0,1-.188-.507,3.423,3.423,0,0,1-.056-.648v-3.155a6.677,6.677,0,0,1,.188-.836,3.562,3.562,0,0,1,.366-.854,2.336,2.336,0,0,1,.573-.657,1.276,1.276,0,0,1,.807-.263,1.9,1.9,0,0,1,.892.244,2.931,2.931,0,0,1,.892.789,13.36,13.36,0,0,1,.892,1.324q.4.685.8,1.362.695,1.183,1.278,2.15T659,289.4q.225-.019.7-.019h1.014q.535,0,1.014.009c.309.006.536.009.687.009h13.614l.639-3.737-.131-.038a10.068,10.068,0,0,1-1.465,1.746,6.249,6.249,0,0,1-1.625,1.1,7.1,7.1,0,0,1-1.916.563,15.394,15.394,0,0,1-2.319.16h-2.028V280.4h.77a12.55,12.55,0,0,1,2.084.141,3.872,3.872,0,0,1,1.324.451,2.742,2.742,0,0,1,.854.8,9.032,9.032,0,0,1,.676,1.183h.113V277.64H672.9a5,5,0,0,1-.545,1.23,2.272,2.272,0,0,1-.873.789,4.51,4.51,0,0,1-1.4.423,14.19,14.19,0,0,1-2.122.132h-.77v-6.592h2.479a14.563,14.563,0,0,1,2.3.16,6.015,6.015,0,0,1,1.765.554,5.735,5.735,0,0,1,1.437,1.042,12.909,12.909,0,0,1,1.352,1.606l.15-.056-.61-3.3h.014a2.83,2.83,0,0,1,.971-.057,1.893,1.893,0,0,1,.742.526,5.193,5.193,0,0,1,.8,1.39l5.991,13.916h.15q1.539-3.887,2.761-6.986.526-1.315,1.032-2.592t.911-2.3q.4-1.023.657-1.681c.17-.438.266-.682.292-.732.1-.225.191-.419.272-.582a1.869,1.869,0,0,1,.272-.413,1.666,1.666,0,0,1,.357-.3,2.576,2.576,0,0,1,.469-.222,3.82,3.82,0,0,1,1.822.146.792.792,0,0,1,.376.366,1.49,1.49,0,0,1,.169.563,6.59,6.59,0,0,1,.037.742v11.662a6.952,6.952,0,0,1-.056.948,1.847,1.847,0,0,1-.207.667.929.929,0,0,1-.45.394,1.939,1.939,0,0,1-.77.131v.188h12.732l.639-3.737-.131-.038A10.063,10.063,0,0,1,704.451,287.368Zm-50.92-6.451a5.3,5.3,0,0,0-1.315.93,3.827,3.827,0,0,0-.948,1.653v-9.878h2.479a6.4,6.4,0,0,1,1.521.178,3.44,3.44,0,0,1,1.3.61,2.985,2.985,0,0,1,.892,1.146,3.936,3.936,0,0,1,.291,1.784,2.92,2.92,0,0,1-.432,1.577,2.873,2.873,0,0,1-1,.892,7.021,7.021,0,0,1-1.343.545A9,9,0,0,0,653.53,280.917Zm32.272,5.23-4.488-10.441a3.316,3.316,0,0,1-.254-.977.966.966,0,0,1,.254-.732,1.053,1.053,0,0,1,.545-.319,1.226,1.226,0,0,1,.638.019,2.172,2.172,0,0,1,.855.469,3.767,3.767,0,0,1,.676.789,7.338,7.338,0,0,1,.516.948q.225.5.394.967c.075.2.153.429.235.685s.166.52.254.789.184.529.291.779a3.2,3.2,0,0,0,.366.657,1.594,1.594,0,0,0,.573.479,1.55,1.55,0,0,0,.685.16,1.426,1.426,0,0,0,.844-.282Z" transform="translate(0 -3.596)" fill="#fff"/>
    <path id="패스_7" data-name="패스 7" d="M655.617,267.206a5.153,5.153,0,0,1,.781,1.5,5.137,5.137,0,0,1,1.717-2.453A5.145,5.145,0,0,1,656.4,263.8a5.15,5.15,0,0,1-1.716,2.453A5.131,5.131,0,0,1,655.617,267.206Z" transform="translate(-2.731)" fill="#fff"/>
  </g>
</svg>
